<svg xmlns="http://www.w3.org/2000/svg" xmlns:xlink="http://www.w3.org/1999/xlink" width="150" zoomAndPan="magnify" viewBox="0 0 112.5 52.499999" height="70" preserveAspectRatio="xMidYMid meet" version="1.0"><defs><g/></defs><g fill="#000000" fill-opacity="1"><g transform="translate(0.28302, 31.077202)"><g><path d="M 4.71875 -4.546875 L 8.5625 0 L 7.6875 0 L 4.34375 -3.984375 L 1.3125 0.15625 L 1.3125 -9.359375 L 1.953125 -9.359375 L 1.953125 -1.859375 L 7.421875 -9.359375 L 8.234375 -9.359375 Z M 4.71875 -4.546875 "/></g></g></g><g fill="#000000" fill-opacity="1"><g transform="translate(9.635441, 31.077202)"><g><path d="M 7.53125 -2.375 L 2.546875 -2.375 L 1.4375 0 L 0.71875 0 L 5.125 -9.484375 L 9.296875 0 L 8.59375 0 Z M 7.25 -3.03125 L 5.09375 -7.875 L 2.859375 -3.03125 Z M 7.25 -3.03125 "/></g></g></g><g fill="#000000" fill-opacity="1"><g transform="translate(19.650754, 31.077202)"><g><path d="M 1.46875 -9.359375 L 5.171875 -3.953125 L 8.859375 -9.359375 L 9.640625 -9.359375 L 5.484375 -3.234375 L 5.484375 0 L 4.84375 0 L 4.84375 -3.234375 L 0.6875 -9.359375 Z M 1.46875 -9.359375 "/></g></g></g><g fill="#000000" fill-opacity="1"><g transform="translate(29.983091, 31.077202)"><g><path d="M 1.3125 -9.359375 L 1.953125 -9.359375 L 1.953125 -0.640625 L 7.21875 -0.640625 L 7.21875 0 L 1.3125 0 Z M 1.3125 -9.359375 "/></g></g></g><g fill="#000000" fill-opacity="1"><g transform="translate(38.355605, 31.077202)"><g><path d="M 7.53125 -2.375 L 2.546875 -2.375 L 1.4375 0 L 0.71875 0 L 5.125 -9.484375 L 9.296875 0 L 8.59375 0 Z M 7.25 -3.03125 L 5.09375 -7.875 L 2.859375 -3.03125 Z M 7.25 -3.03125 "/></g></g></g><g fill="#000000" fill-opacity="1"><g transform="translate(48.370918, 31.077202)"><g><path d="M 1.609375 -0.953125 C 1.472656 -0.953125 1.359375 -1.003906 1.265625 -1.109375 C 1.171875 -1.203125 1.125 -1.316406 1.125 -1.453125 C 1.125 -1.597656 1.171875 -1.71875 1.265625 -1.8125 C 1.359375 -1.90625 1.472656 -1.953125 1.609375 -1.953125 C 1.753906 -1.953125 1.875 -1.90625 1.96875 -1.8125 C 2.070312 -1.707031 2.125 -1.585938 2.125 -1.453125 C 2.125 -1.316406 2.070312 -1.203125 1.96875 -1.109375 C 1.875 -1.003906 1.753906 -0.953125 1.609375 -0.953125 Z M 1.609375 -3.96875 C 1.472656 -3.96875 1.359375 -4.019531 1.265625 -4.125 C 1.171875 -4.21875 1.125 -4.335938 1.125 -4.484375 C 1.125 -4.617188 1.171875 -4.738281 1.265625 -4.84375 C 1.359375 -4.9375 1.472656 -4.984375 1.609375 -4.984375 C 1.753906 -4.984375 1.875 -4.9375 1.96875 -4.84375 C 2.070312 -4.738281 2.125 -4.617188 2.125 -4.484375 C 2.125 -4.347656 2.070312 -4.234375 1.96875 -4.140625 C 1.875 -4.023438 1.753906 -3.96875 1.609375 -3.96875 Z M 1.609375 -3.96875 "/></g></g></g><g fill="#000000" fill-opacity="1"><g transform="translate(51.613287, 31.077202)"><g><path d="M 2.4375 -2.3125 C 2.4375 -1.9375 2.578125 -1.59375 2.859375 -1.28125 C 3.148438 -0.96875 3.523438 -0.742188 3.984375 -0.609375 L 3.984375 0.0625 C 3.335938 -0.09375 2.8125 -0.390625 2.40625 -0.828125 C 1.988281 -1.265625 1.78125 -1.757812 1.78125 -2.3125 L 1.78125 -3.9375 C 1.769531 -3.96875 1.671875 -4.097656 1.484375 -4.328125 C 1.296875 -4.546875 1.175781 -4.679688 1.125 -4.734375 L 1.5 -5.171875 C 1.664062 -5.359375 1.757812 -5.476562 1.78125 -5.53125 L 1.78125 -7.109375 C 1.78125 -7.671875 1.988281 -8.171875 2.40625 -8.609375 C 2.8125 -9.046875 3.335938 -9.34375 3.984375 -9.5 L 3.984375 -8.828125 C 3.523438 -8.691406 3.148438 -8.46875 2.859375 -8.15625 C 2.578125 -7.832031 2.4375 -7.484375 2.4375 -7.109375 L 2.4375 -5.515625 C 2.4375 -5.347656 2.300781 -5.085938 2.03125 -4.734375 C 2.300781 -4.378906 2.4375 -4.117188 2.4375 -3.953125 Z M 2.4375 -2.3125 "/></g></g></g><g fill="#000000" fill-opacity="1"><g transform="translate(56.714606, 31.077202)"><g><path d="M 1.328125 0 L 1.3125 -9.359375 L 4.65625 -9.359375 C 5.195312 -9.359375 5.707031 -9.238281 6.1875 -9 C 6.65625 -8.757812 7.023438 -8.4375 7.296875 -8.03125 C 7.554688 -7.632812 7.6875 -7.195312 7.6875 -6.71875 C 7.6875 -6.238281 7.554688 -5.800781 7.296875 -5.40625 C 7.015625 -4.988281 6.644531 -4.660156 6.1875 -4.421875 C 5.707031 -4.179688 5.195312 -4.0625 4.65625 -4.0625 L 1.96875 -4.0625 L 1.96875 0 Z M 1.96875 -4.734375 L 4.65625 -4.734375 C 5.09375 -4.734375 5.488281 -4.828125 5.84375 -5.015625 C 6.207031 -5.179688 6.503906 -5.421875 6.734375 -5.734375 C 6.941406 -6.035156 7.046875 -6.363281 7.046875 -6.71875 C 7.046875 -7.09375 6.941406 -7.425781 6.734375 -7.71875 C 6.503906 -8.03125 6.207031 -8.269531 5.84375 -8.4375 C 5.476562 -8.613281 5.082031 -8.703125 4.65625 -8.703125 L 1.953125 -8.703125 Z M 1.96875 -4.734375 "/></g></g></g><g fill="#000000" fill-opacity="1"><g transform="translate(65.288866, 31.077202)"><g><path d="M 1.3125 -9.359375 L 7.375 -9.359375 L 7.375 -8.703125 L 1.953125 -8.703125 L 1.953125 -5.015625 L 6.1875 -5.015625 L 6.1875 -4.34375 L 1.953125 -4.34375 L 1.953125 -0.671875 L 7.375 -0.671875 L 7.375 0 L 1.3125 0 Z M 1.3125 -9.359375 "/></g></g></g><g fill="#000000" fill-opacity="1"><g transform="translate(73.964, 31.077202)"><g><path d="M 7.53125 -2.375 L 2.546875 -2.375 L 1.4375 0 L 0.71875 0 L 5.125 -9.484375 L 9.296875 0 L 8.59375 0 Z M 7.25 -3.03125 L 5.09375 -7.875 L 2.859375 -3.03125 Z M 7.25 -3.03125 "/></g></g></g><g fill="#000000" fill-opacity="1"><g transform="translate(83.979314, 31.077202)"><g><path d="M 6.84375 0 L 2.953125 -4.71875 L 4.109375 -4.71875 C 4.828125 -4.71875 5.398438 -4.8125 5.828125 -5 C 6.171875 -5.164062 6.460938 -5.40625 6.703125 -5.71875 C 6.929688 -6.03125 7.046875 -6.367188 7.046875 -6.734375 C 7.046875 -7.078125 6.941406 -7.394531 6.734375 -7.6875 C 6.535156 -7.988281 6.25 -8.234375 5.875 -8.421875 C 5.488281 -8.617188 5.054688 -8.71875 4.578125 -8.71875 L 1.953125 -8.71875 L 1.953125 0 L 1.3125 0 L 1.3125 -9.359375 L 4.578125 -9.359375 C 5.023438 -9.359375 5.4375 -9.289062 5.8125 -9.15625 C 6.195312 -9.019531 6.535156 -8.820312 6.828125 -8.5625 C 7.109375 -8.3125 7.328125 -8.023438 7.484375 -7.703125 C 7.617188 -7.390625 7.6875 -7.066406 7.6875 -6.734375 C 7.6875 -6.222656 7.535156 -5.753906 7.234375 -5.328125 C 6.921875 -4.910156 6.539062 -4.601562 6.09375 -4.40625 C 5.820312 -4.28125 5.550781 -4.195312 5.28125 -4.15625 C 5.019531 -4.125 4.703125 -4.109375 4.328125 -4.109375 L 7.703125 0 Z M 6.84375 0 "/></g></g></g><g fill="#000000" fill-opacity="1"><g transform="translate(92.885011, 31.077202)"><g><path d="M 0.78125 -9.359375 L 8.859375 -9.359375 L 8.859375 -8.703125 L 5.15625 -8.703125 L 5.15625 0 L 4.5 0 L 4.5 -8.703125 L 0.78125 -8.703125 Z M 0.78125 -9.359375 "/></g></g></g><g fill="#000000" fill-opacity="1"><g transform="translate(102.525648, 31.077202)"><g><path d="M 1.125 -0.609375 C 1.582031 -0.742188 1.957031 -0.96875 2.25 -1.28125 C 2.53125 -1.59375 2.671875 -1.9375 2.671875 -2.3125 L 2.671875 -3.953125 C 2.671875 -4.148438 2.804688 -4.410156 3.078125 -4.734375 C 2.804688 -5.066406 2.671875 -5.328125 2.671875 -5.515625 L 2.671875 -7.109375 C 2.671875 -7.484375 2.53125 -7.832031 2.25 -8.15625 C 1.957031 -8.46875 1.582031 -8.691406 1.125 -8.828125 L 1.125 -9.5 C 1.769531 -9.34375 2.296875 -9.046875 2.703125 -8.609375 C 3.109375 -8.171875 3.3125 -7.671875 3.3125 -7.109375 L 3.3125 -5.53125 C 3.320312 -5.488281 3.421875 -5.367188 3.609375 -5.171875 L 3.984375 -4.734375 L 3.75 -4.453125 L 3.3125 -3.9375 L 3.3125 -2.3125 C 3.3125 -1.757812 3.109375 -1.265625 2.703125 -0.828125 C 2.296875 -0.390625 1.769531 -0.09375 1.125 0.0625 Z M 1.125 -0.609375 "/></g></g></g><g fill="#000000" fill-opacity="1"><g transform="translate(107.626966, 31.077202)"><g><path d="M 1.953125 -2.6875 C 1.816406 -2.6875 1.695312 -2.742188 1.59375 -2.859375 C 1.5 -2.953125 1.453125 -3.066406 1.453125 -3.203125 C 1.453125 -3.335938 1.5 -3.457031 1.59375 -3.5625 C 1.695312 -3.65625 1.816406 -3.703125 1.953125 -3.703125 C 2.085938 -3.703125 2.207031 -3.65625 2.3125 -3.5625 C 2.414062 -3.457031 2.46875 -3.335938 2.46875 -3.203125 C 2.46875 -3.066406 2.414062 -2.953125 2.3125 -2.859375 C 2.207031 -2.742188 2.085938 -2.6875 1.953125 -2.6875 Z M 2.34375 -0.671875 L 1.625 0.703125 L 1.125 0.703125 L 1.609375 -0.671875 Z M 2.34375 -0.671875 "/></g></g></g></svg>